<svg xmlns="http://www.w3.org/2000/svg" viewBox="0 0 512 512" role="img" aria-labelledby="title">
  <title>Decksmith</title>
  <defs>
    <linearGradient id="bg" x1="0%" x2="100%" y1="0%" y2="100%">
      <stop offset="0%" stop-color="#6a5cff" />
      <stop offset="100%" stop-color="#3239d7" />
    </linearGradient>
    <linearGradient id="glass" x1="0%" x2="100%" y1="0%" y2="100%">
      <stop offset="0%" stop-color="#ffffff" stop-opacity="0.24" />
      <stop offset="100%" stop-color="#ffffff" stop-opacity="0.02" />
    </linearGradient>
  </defs>
  <rect width="512" height="512" rx="120" fill="#16191f" />
  <rect x="48" y="48" width="416" height="416" rx="104" fill="url(#bg)" />
  <rect x="48" y="48" width="416" height="416" rx="104" fill="url(#glass)" />
  <g fill="#ffffff">
    <rect x="112" y="120" width="88" height="88" rx="22" opacity="0.96" />
    <rect x="212" y="120" width="88" height="88" rx="22" opacity="0.88" />
    <rect x="312" y="120" width="88" height="88" rx="22" opacity="0.8" />
    <rect x="112" y="220" width="88" height="88" rx="22" opacity="0.84" />
    <rect x="212" y="220" width="88" height="88" rx="22" opacity="0.96" />
    <rect x="312" y="220" width="88" height="88" rx="22" opacity="0.84" />
    <rect x="112" y="320" width="88" height="88" rx="22" opacity="0.8" />
    <rect x="212" y="320" width="88" height="88" rx="22" opacity="0.88" />
    <rect x="312" y="320" width="88" height="88" rx="22" opacity="0.96" />
  </g>
</svg>
